<svg width="70" height="43" viewBox="0 0 70 43" fill="none" xmlns="http://www.w3.org/2000/svg">
<path d="M52.4997 41.002V42.9545H17.4998V41.002C17.4998 36.3414 19.3436 31.8718 22.6256 28.5769C25.9072 25.2813 30.3584 23.4299 34.9996 23.4299C39.6407 23.4299 44.0921 25.2813 47.3735 28.5769C50.6555 31.872 52.4993 36.3416 52.4993 41.002H52.4997ZM34.9998 19.5246C37.5782 19.5246 40.0513 18.4961 41.8743 16.6655C43.6977 14.8346 44.722 12.3512 44.722 9.76209C44.722 7.17333 43.6978 4.69001 41.8743 2.85907C40.0513 1.02853 37.5782 0 34.9998 0C32.4213 0 29.9482 1.02843 28.1252 2.85907C26.3018 4.69001 25.2775 7.17333 25.2775 9.76209C25.2775 12.3512 26.3017 14.8346 28.1252 16.6655C29.9482 18.496 32.4213 19.5246 34.9998 19.5246ZM13.6108 27.3344C10.0011 27.3344 6.53897 28.7748 3.98668 31.3376C1.43399 33.9009 0 37.3773 0 41.002V42.9545H13.6109V41.002C13.6055 36.3237 15.1211 31.7714 17.9277 28.0376C16.5355 27.5736 15.0781 27.3363 13.6109 27.3347L13.6108 27.3344ZM13.6108 23.4293V23.4296C15.6737 23.4296 17.6522 22.6067 19.1108 21.1421C20.5694 19.6775 21.3889 17.6912 21.3889 15.6198C21.3889 13.5484 20.5694 11.5621 19.1108 10.0971C17.6522 8.63243 15.6737 7.80994 13.6108 7.80994C11.5484 7.80994 9.56986 8.63247 8.11127 10.0971C6.65267 11.5621 5.83318 13.5484 5.83318 15.6198C5.83318 17.6912 6.6527 19.6775 8.11127 21.1421C9.56986 22.6068 11.5484 23.4296 13.6108 23.4296V23.4293ZM56.3887 27.3344H56.3891C54.9219 27.336 53.4645 27.5733 52.0723 28.0373C54.8789 31.7715 56.3946 36.3237 56.3891 41.0017V42.9542H70V41.0017C70 37.377 68.566 33.9006 66.0133 31.3373C63.461 28.7745 59.9988 27.3341 56.3892 27.3341L56.3887 27.3344ZM56.3887 23.4293L56.3891 23.4296C58.4516 23.4296 60.43 22.6067 61.8886 21.1421C63.3472 19.6775 64.1667 17.6912 64.1667 15.6198C64.1667 13.5484 63.3472 11.5621 61.8886 10.0971C60.43 8.63243 58.4516 7.80994 56.3891 7.80994C54.3262 7.80994 52.3477 8.63247 50.8891 10.0971C49.4305 11.5621 48.611 13.5484 48.611 15.6198C48.611 17.6912 49.4305 19.6775 50.8891 21.1421C52.3477 22.6068 54.3262 23.4296 56.3891 23.4296L56.3887 23.4293Z" fill="black"/>
</svg>
